<svg id="svg" version="1.1" xmlns="http://www.w3.org/2000/svg" xmlns:xlink="http://www.w3.org/1999/xlink" width="400" height="400" viewBox="0, 0, 400,400"><g id="svgg"><path id="path0" d="M190.039 0.426 C 187.246 0.598,183.555 0.919,181.836 1.139 C 180.117 1.359,177.612 1.649,176.270 1.784 C 173.306 2.082,173.414 0.924,175.201 13.321 C 176.679 23.570,176.680 23.828,175.242 23.828 C 174.373 23.828,166.371 25.304,159.570 26.718 C 152.871 28.111,142.850 31.220,134.856 34.384 C 133.080 35.088,131.558 35.593,131.474 35.507 C 131.390 35.422,129.439 31.001,127.137 25.684 C 124.836 20.366,122.770 16.016,122.546 16.016 C 121.223 16.016,103.019 25.586,96.541 29.688 C 94.335 31.084,91.970 32.566,91.285 32.980 C 88.427 34.709,82.571 39.023,77.929 42.820 C 77.284 43.348,76.504 43.935,76.196 44.126 C 75.792 44.375,75.750 44.616,76.045 44.990 C 76.270 45.275,79.298 48.996,82.773 53.259 L 89.091 61.009 87.380 62.516 C 86.439 63.344,84.806 64.713,83.752 65.559 C 78.469 69.797,64.678 84.533,60.934 89.941 C 60.301 90.854,59.450 92.025,59.043 92.543 L 58.301 93.484 50.177 87.524 C 45.708 84.246,41.852 81.487,41.607 81.393 C 40.855 81.105,34.615 90.256,29.719 98.828 C 24.730 107.563,17.194 123.455,17.045 125.556 C 17.001 126.187,18.525 126.902,26.598 130.037 L 36.203 133.767 35.245 136.122 C 31.403 145.562,28.414 157.182,25.898 172.461 C 25.332 175.898,24.816 178.779,24.751 178.861 C 24.687 178.944,20.238 178.515,14.865 177.909 C 9.492 177.302,4.960 176.941,4.794 177.107 C 4.269 177.632,4.423 222.157,4.952 222.686 C 5.304 223.038,7.654 222.892,15.017 222.061 C 20.300 221.465,24.678 221.047,24.746 221.133 C 24.813 221.219,25.332 224.102,25.898 227.539 C 27.452 236.978,28.520 241.996,30.719 250.195 C 32.110 255.379,32.492 256.542,34.831 262.695 L 36.167 266.211 26.579 269.944 C 15.550 274.239,16.341 273.321,18.723 279.060 C 22.845 288.988,30.029 302.366,36.156 311.523 C 40.954 318.693,41.206 319.003,41.858 318.507 C 42.147 318.287,45.964 315.498,50.340 312.309 L 58.297 306.511 59.051 307.455 C 59.465 307.974,60.217 309.014,60.721 309.766 C 62.984 313.143,71.724 323.002,76.342 327.385 C 79.118 330.021,88.439 338.500,88.976 338.878 C 89.036 338.920,86.092 342.626,82.433 347.114 C 74.970 356.269,75.471 355.468,76.713 356.250 C 77.225 356.572,78.954 357.891,80.555 359.180 C 83.852 361.834,89.295 365.734,92.773 367.933 C 94.063 368.748,96.084 370.034,97.266 370.792 C 102.485 374.136,114.243 380.374,119.336 382.500 C 120.840 383.127,122.263 383.727,122.498 383.831 C 122.751 383.944,124.575 380.208,126.943 374.726 C 129.153 369.613,131.111 365.137,131.296 364.780 C 131.605 364.181,131.762 364.192,133.252 364.912 C 140.550 368.438,158.676 373.510,170.956 375.463 C 173.932 375.936,176.423 376.360,176.491 376.404 C 176.559 376.448,175.988 380.955,175.221 386.419 C 173.417 399.281,173.251 397.915,176.660 398.227 C 178.218 398.369,180.387 398.640,181.480 398.827 C 189.474 400.201,211.638 400.159,220.020 398.754 C 223.165 398.227,222.971 399.566,221.680 387.266 C 220.389 374.973,220.191 376.311,223.340 376.014 C 235.635 374.856,259.231 368.274,268.645 363.377 C 270.274 362.530,269.886 361.898,274.594 373.047 C 276.817 378.311,278.750 382.749,278.889 382.910 C 279.103 383.160,285.431 380.333,289.258 378.278 C 289.902 377.932,291.309 377.196,292.383 376.641 C 297.254 374.129,308.125 367.599,310.329 365.862 C 311.177 365.195,312.671 364.120,313.650 363.473 C 317.868 360.688,319.589 359.246,319.427 358.633 C 319.337 358.289,316.423 354.275,312.952 349.712 C 305.665 340.134,306.124 341.240,308.614 339.258 C 315.818 333.520,324.104 325.664,330.242 318.750 C 333.884 314.648,335.076 313.186,339.637 307.227 C 341.467 304.835,340.243 304.316,350.232 311.719 C 354.870 315.156,358.799 317.969,358.963 317.969 C 360.284 317.969,372.748 297.638,376.565 289.258 C 377.152 287.969,378.246 285.596,378.995 283.984 C 381.240 279.159,382.586 275.396,382.195 275.038 C 381.913 274.780,367.813 268.985,363.187 267.226 L 362.243 266.867 364.926 258.726 C 366.402 254.249,367.757 249.883,367.938 249.023 C 368.119 248.164,368.633 246.055,369.080 244.336 C 370.586 238.547,371.012 236.541,371.652 232.227 C 372.003 229.863,372.460 226.855,372.668 225.541 C 372.877 224.227,373.047 221.974,373.047 220.534 C 373.047 218.230,373.129 217.938,373.730 218.102 C 375.306 218.532,394.913 220.061,395.197 219.777 C 395.565 219.409,395.622 181.332,395.256 180.447 C 395.023 179.884,384.250 180.575,374.512 181.776 L 373.047 181.957 373.047 179.402 C 373.047 177.997,372.877 175.773,372.668 174.459 C 372.460 173.145,372.007 170.137,371.662 167.773 C 371.316 165.410,370.875 162.861,370.682 162.109 C 370.488 161.357,369.781 158.457,369.111 155.664 C 368.440 152.871,366.647 146.719,365.126 141.992 C 363.605 137.266,362.426 133.311,362.505 133.203 C 362.584 133.096,367.047 131.225,372.424 129.045 C 377.800 126.866,382.256 124.911,382.326 124.701 C 382.474 124.258,380.566 119.310,378.827 115.625 C 378.168 114.229,377.151 112.031,376.567 110.742 C 372.790 102.398,360.284 82.031,358.937 82.031 C 358.759 82.031,354.698 84.937,349.915 88.488 C 341.988 94.372,341.173 94.882,340.723 94.249 C 333.046 83.439,319.733 69.531,308.650 60.742 C 306.136 58.749,305.672 59.865,313.086 50.081 C 316.631 45.404,319.531 41.379,319.531 41.137 C 319.531 40.705,317.145 38.835,313.650 36.527 C 312.671 35.880,311.177 34.806,310.329 34.139 C 308.784 32.921,304.240 30.078,298.047 26.451 C 294.121 24.152,280.581 17.319,279.570 17.126 C 278.990 17.016,278.118 18.733,274.606 26.904 C 269.584 38.587,270.394 37.464,267.872 36.244 C 259.960 32.416,240.849 26.472,233.594 25.583 C 232.412 25.438,230.391 25.080,229.102 24.786 C 227.813 24.493,225.396 24.142,223.730 24.007 C 220.941 23.781,220.703 23.694,220.703 22.897 C 220.703 22.422,221.143 17.848,221.680 12.734 C 222.919 0.934,222.939 1.719,221.387 1.395 C 216.060 0.282,200.274 -0.206,190.039 0.426 M216.263 51.341 C 303.237 61.410,362.774 141.548,347.023 227.344 C 332.036 308.978,252.315 362.919,170.703 346.646 C 80.801 328.719,27.841 234.121,59.644 148.267 C 83.507 83.844,148.673 43.516,216.263 51.341 " stroke="none" fill="#040404" fill-rule="evenodd"></path><path id="path1" d="M103.516 199.997 L 103.516 281.250 131.638 281.250 L 159.760 281.250 159.861 253.502 L 159.961 225.755 172.843 246.471 L 185.726 267.188 199.796 267.177 L 213.867 267.166 226.367 246.030 C 233.242 234.405,239.081 224.610,239.343 224.263 C 239.721 223.763,239.822 226.011,239.832 235.156 C 239.839 241.494,239.961 254.458,240.103 263.965 L 240.362 281.250 268.228 281.250 L 296.094 281.250 296.093 216.699 C 296.093 181.196,295.976 144.634,295.834 135.449 L 295.576 118.750 270.932 118.751 L 246.289 118.753 223.467 157.130 C 197.342 201.062,200.428 196.048,199.974 195.309 C 199.778 194.989,189.171 177.676,176.403 156.836 L 153.189 118.945 128.352 118.845 L 103.516 118.744 103.516 199.997 " stroke="none" fill="#fbfbfb" fill-rule="evenodd"></path><path id="path2" d="M186.523 50.999 C 61.713 63.154,5.647 212.826,91.972 303.410 C 169.306 384.560,306.418 353.693,341.953 247.134 C 375.842 145.511,292.748 40.654,186.523 50.999 M176.714 157.039 C 189.581 178.089,200.216 195.306,200.347 195.298 C 200.479 195.289,210.795 178.107,223.273 157.114 L 245.960 118.945 271.027 118.845 L 296.094 118.744 296.094 151.071 C 296.094 168.851,296.211 205.415,296.354 232.324 L 296.614 281.250 268.229 281.250 L 239.844 281.250 239.798 256.738 C 239.773 243.257,239.641 230.511,239.505 228.415 L 239.258 224.603 226.563 246.079 L 213.867 267.555 199.805 267.562 L 185.742 267.570 172.852 246.825 L 159.961 226.079 159.861 253.665 L 159.760 281.250 131.638 281.250 L 103.516 281.250 103.516 200.000 L 103.516 118.750 128.418 118.758 L 153.320 118.766 176.714 157.039 " stroke="none" fill="#3b54d3" fill-rule="evenodd"></path><path id="path3" d="M296.279 244.141 C 296.279 259.717,296.327 266.089,296.387 258.301 C 296.446 250.513,296.446 237.769,296.387 229.980 C 296.327 222.192,296.279 228.564,296.279 244.141 M239.596 227.539 C 239.597 229.688,239.662 230.517,239.742 229.381 C 239.821 228.246,239.820 226.488,239.740 225.475 C 239.660 224.462,239.595 225.391,239.596 227.539 M239.965 279.102 C 239.967 280.391,240.040 280.871,240.127 280.169 C 240.214 279.467,240.212 278.412,240.123 277.825 C 240.034 277.238,239.963 277.813,239.965 279.102 " stroke="none" fill="#8093e6" fill-rule="evenodd"></path><path id="path4" d="M295.876 129.883 C 295.876 136.113,295.930 138.607,295.995 135.425 C 296.061 132.243,296.061 127.146,295.995 124.097 C 295.929 121.049,295.875 123.652,295.876 129.883 M240.013 267.578 C 240.013 272.842,240.068 274.995,240.136 272.363 C 240.203 269.731,240.203 265.425,240.136 262.793 C 240.068 260.161,240.013 262.314,240.013 267.578 M192.896 267.480 C 196.831 267.544,203.159 267.544,206.959 267.480 C 210.758 267.416,207.539 267.364,199.805 267.364 C 192.070 267.364,188.962 267.416,192.896 267.480 M296.243 276.758 C 296.244 279.336,296.307 280.340,296.383 278.989 C 296.460 277.637,296.459 275.528,296.382 274.301 C 296.305 273.074,296.242 274.180,296.243 276.758 " stroke="none" fill="#9cacec" fill-rule="evenodd"></path></g></svg>